<svg xmlns="http://www.w3.org/2000/svg" width="26" height="28"><path fill="transparent" stroke="#013" stroke-miterlimit="10" stroke-width=".05" d="M.242 16.493c.672 3.514 2.23 6.319 4.673 8.412 8.21 7.038 20.14 1.134 20.951-9.71.416-5.579-1.689-9.992-6.318-13.242"/><path fill="transparent" stroke="#FBBAB5" stroke-miterlimit="10" stroke-width=".05" d="M19.548 1.953C9.46-3.888-1.607 4.926.242 16.493m19.306-14.54-1.445 2.763m0 .001C10.036.952 2.213 6.81 3.288 15.955"/><path fill="transparent" stroke="#013" stroke-miterlimit="10" stroke-width=".05" d="M3.288 15.955C9.98 14.75 14.919 11.004 18.103 4.716"/><path fill="#634C00" d="m19.548 1.953-1.445 2.763C10.036.952 2.213 6.81 3.288 15.955a9.854 9.854 0 0 1-3.046.538C-1.607 4.926 9.46-3.888 19.548 1.953z"/><path fill="#84AB6A" d="M19.548 1.953c4.629 3.25 6.734 7.663 6.318 13.242-.811 10.844-12.741 16.748-20.951 9.71C2.472 22.812.914 20.007.242 16.493a9.854 9.854 0 0 0 3.046-.538C9.98 14.75 14.919 11.004 18.103 4.716z"/></svg>